HIERARCHY
ROOT Hips
{
	OFFSET 0.00000 0.00000 0.00000
	CHANNELS 6 Xposition Yposition Zposition Yrotation Zrotation Xrotation 
	JOINT Lumbar
	{
		OFFSET 0 0 0
		CHANNELS 3 Zrotation Xrotation Yrotation
		JOINT Neck
		{
			OFFSET 0.00 0.2701 0.00
			CHANNELS 3 Zrotation Xrotation Yrotation
			End Site
			{
				OFFSET 0.00 0.1379 0.00
			}
		}
		JOINT RightShoulder
		{
			OFFSET 0.0119 0.2289 0.1181
			CHANNELS 3 Zrotation Xrotation Yrotation
			JOINT RightElbow
			{
				OFFSET 0.00 -0.1475 0.00
				CHANNELS 2 Zrotation Yrotation
				JOINT RightWrist
				{
					OFFSET 0.00 -0.1605 0.00
					CHANNELS 2 Zrotation Xrotation
					End Site
					{
						OFFSET 0.0040 -0.1068 0.0006
					}
				}
			}
		}
		JOINT LeftShoulder
		{
			OFFSET 0.0119 0.2289 -0.1181
			CHANNELS 3 Zrotation Xrotation Yrotation
			JOINT LeftElbow
			{
				OFFSET 0.00 -0.1475 0.00
				CHANNELS 2 Zrotation Yrotation
				JOINT LeftWrist
				{
					OFFSET 0.00 -0.1605 0.00
					CHANNELS 2 Zrotation Xrotation
					End Site
					{
						OFFSET 0.0040 -0.1068 -0.0006
					}
				}
			}
		}
	}
	JOINT RightHip
	{
		OFFSET 0.0316 -0.0424 0.0458
		CHANNELS 3 Zrotation Xrotation Yrotation
		JOINT RightKnee
		{
			OFFSET 0.00 -0.2438 0.00
			CHANNELS 1 Zrotation
			JOINT RightAnkle
			{
				OFFSET 0.00 -0.2449 0.00
				CHANNELS 3 Zrotation Xrotation Yrotation
				End Site
				{
					OFFSET 0.1237 -0.0542 0.0051
				}
			}
		}
	}
	JOINT LeftHip
	{
		OFFSET 0.0316 -0.0424 -0.0458
		CHANNELS 3 Zrotation Xrotation Yrotation
		JOINT LeftKnee
		{
			OFFSET 0.00 -0.2438 0.00
			CHANNELS 1 Zrotation
			JOINT LeftAnkle
			{
				OFFSET 0.00 -0.2449 0.00
				CHANNELS 3 Zrotation Xrotation Yrotation
				End Site
				{
					OFFSET 0.1237 -0.0542 -0.0051
				}
			}
		}
	}
}
MOTION
Frames: 25
Frame Time: 0.02
-0.09996 -0.0194 -0.01104 12.03473 -23.6702 -4.67672 38.27396 3.41691 -0.50172 -6.33975 7.33607 -0.82713 8.27921 -5.82562 48.49954 128.8189 66.6586 21.73402 -4.15529 -4.76832 30.53746 -16.9535 53.49924 -92.10483 6.93987 -0.22933 42.37594 -5.11302 -8.25623 -25.12255 -6.9063 -3.15299 -2.2991 45.03185 4.9313 1.22179 -28.59942 -6.96323 3.67176 2.57044
-0.10087 -0.01959 -0.00828 12.21021 -23.72685 -4.55828 37.86733 3.48522 -0.41001 -6.55243 7.66481 -0.82725 7.90318 -5.03976 49.42076 129.38547 66.75562 21.90275 -3.92605 -5.58687 30.16093 -16.93619 52.30964 -92.60082 7.23882 -0.30372 42.56417 -4.93921 -8.16176 -25.06051 -6.9007 -3.17288 -2.31246 45.3401 4.95776 0.71774 -28.63059 -7.02159 3.70389 2.59065
-0.10187 -0.01984 -0.00543 12.44331 -23.77981 -4.43077 37.44397 3.56008 -0.28674 -6.8981 7.93656 -0.82736 7.31229 -4.52048 49.93095 129.6298 66.92347 21.99992 -3.73025 -6.43609 29.69623 -16.86082 51.28957 -93.19279 7.68477 -0.36378 42.76139 -4.75544 -7.96054 -25.00712 -6.89791 -3.21231 -2.33716 45.68294 4.98712 0.26454 -28.68217 -7.08104 3.72023 2.6029
-0.10283 -0.02006 -0.00261 12.65566 -23.83493 -4.30954 37.02916 3.63342 -0.17921 -7.18364 8.23181 -0.82747 6.8304 -3.89038 50.62163 130.00633 67.0965 22.12485 -3.53139 -7.27254 29.27234 -16.80836 50.20913 -93.73763 8.05942 -0.42925 42.9554 -4.57628 -7.81564 -24.952 -6.89386 -3.24276 -2.35648 46.0144 5.02244 -0.19013 -28.72809 -7.13914 3.74053 2.61683
-0.10379 -0.02027 0.00018 12.8449 -23.89047 -4.17996 36.6091 3.70086 -0.06821 -7.47139 8.53343 -0.82759 6.3047 -3.20179 51.33142 130.40592 67.16183 22.26296 -3.27159 -8.11755 28.8399 -16.75956 49.06491 -94.30447 8.45651 -0.50043 43.15009 -4.3951 -7.63696 -24.88876 -6.88986 -3.27357 -2.37682 46.33125 5.02723 -0.74108 -28.75807 -7.20054 3.77479 2.63911
-0.10477 -0.02052 0.00305 13.09631 -23.94345 -4.06557 36.19676 3.78192 0.04408 -7.78342 8.80953 -0.8277 5.8177 -2.70381 51.90625 130.69474 67.44518 22.35935 -3.14937 -8.94539 28.40748 -16.69459 48.09075 -94.84525 8.84066 -0.5559 43.34402 -4.21652 -7.50517 -24.84426 -6.88628 -3.30823 -2.39764 46.68575 5.09637 -1.07805 -28.82669 -7.25551 3.776 2.64202
-0.10577 -0.02086 0.00614 13.50163 -23.98842 -3.99233 35.8068 3.9005 0.15103 -8.14667 9.03096 -0.8278 5.48971 -2.67047 52.21372 130.76169 68.36136 22.35689 -3.41145 -9.7361 27.98345 -16.58626 47.55121 -95.29374 9.15013 -0.57159 43.53105 -4.04598 -7.509 -24.84656 -6.88428 -3.34937 -2.41771 47.13018 5.34039 -0.83048 -28.99266 -7.29159 3.6908 2.59375
-0.10678 -0.02124 0.00932 13.96805 -24.03084 -3.9351 35.42609 4.03222 0.25872 -8.52635 9.22881 -0.82788 5.20786 -2.82137 52.39957 130.73245 69.47915 22.31597 -3.8099 -10.50348 27.56556 -16.46711 47.17502 -95.711 9.44133 -0.57182 43.71671 -3.87884 -7.56692 -24.86774 -6.88242 -3.39357 -2.43774 47.61148 5.64923 -0.37014 -29.19749 -7.32134 3.57274 2.52621
-0.10778 -0.0216 0.01246 14.40905 -24.07538 -3.87237 35.04302 4.15694 0.36721 -8.88725 9.43694 -0.82797 4.90421 -2.88769 52.63946 130.74949 70.4664 22.29453 -4.13945 -11.26818 27.15408 -16.36327 46.71874 -96.13964 9.74258 -0.57894 43.90426 -3.71149 -7.6135 -24.88195 -6.87971 -3.43598 -2.45731 48.07932 5.92993 -0.00979 -29.38761 -7.35458 3.46896 2.46717
-0.1088 -0.02194 0.01558 14.84273 -24.11612 -3.80188 34.65075 4.28636 0.47204 -9.30058 9.64523 -0.82807 4.59547 -2.96622 52.8711 130.74464 71.62072 22.26251 -4.49984 -12.09023 26.70049 -16.21486 46.29267 -96.5841 10.0425 -0.58613 44.08742 -3.53841 -7.602 -24.88973 -6.88029 -3.48086 -2.47927 48.53566 6.20588 0.36814 -29.56665 -7.38529 3.36714 2.40878
-0.10977 -0.02234 0.01876 15.30469 -24.16377 -3.75144 34.28106 4.40888 0.58415 -9.60687 9.84786 -0.82815 4.31254 -3.06014 53.09514 130.76578 72.47451 22.24373 -4.82717 -12.78685 26.3374 -16.1556 45.8409 -96.98633 10.33784 -0.5897 44.27855 -3.37784 -7.72377 -24.91522 -6.87415 -3.52095 -2.49615 49.0228 6.50617 0.75683 -29.77687 -7.41973 3.25399 2.3448
-0.11062 -0.02289 0.0221 15.83567 -24.2347 -3.75264 33.96319 4.51025 0.71706 -9.61315 10.04488 -0.82822 4.07786 -3.14669 53.34115 130.89492 72.44102 22.27692 -5.03715 -13.14186 26.22206 -16.36261 45.2719 -97.28325 10.63344 -0.58696 44.49777 -3.25445 -8.21715 -24.98532 -6.84827 -3.54787 -2.49837 49.59747 6.86531 1.14467 -30.07069 -7.46634 3.11454 2.26807
-0.11141 -0.0235 0.0255 16.39156 -24.31192 -3.7734 33.66948 4.60395 0.85687 -9.5107 10.23636 -0.82829 3.87084 -3.24192 53.58334 131.05297 72.09918 22.32403 -5.2077 -13.37132 26.1982 -16.65695 44.672 -97.53727 10.92268 -0.5812 44.72379 -3.14299 -8.83991 -25.07241 -6.81582 -3.56965 -2.49556 50.19919 7.24515 1.53179 -30.39286 -7.51686 2.96551 2.18682
-0.11221 -0.02407 0.02885 16.93199 -24.384 -3.7852 33.37002 4.70044 0.99289 -9.45742 10.42806 -0.82835 3.65982 -3.33505 53.82078 131.19115 71.9032 22.36122 -5.39132 -13.65883 26.13332 -16.89997 44.08913 -97.80842 11.20862 -0.57696 44.94307 -3.02376 -9.39328 -25.15152 -6.78709 -3.59306 -2.49542 50.7812 7.6107 1.9048 -30.6977 -7.56543 2.82288 2.10899
-0.11308 -0.02467 0.03227 17.49233 -24.46593 -3.79812 33.04821 4.80044 1.13204 -9.40517 10.62922 -0.82843 3.41388 -3.4271 54.08113 131.35394 71.68985 22.41219 -5.60001 -13.94184 26.06614 -17.19096 43.49827 -98.08973 11.52038 -0.57153 45.1783 -2.91434 -9.99432 -25.23263 -6.75523 -3.61933 -2.49361 51.39722 7.99959 2.34593 -31.02378 -7.61458 2.67027 2.02468
-0.11378 -0.02523 0.03557 18.016 -24.52847 -3.81283 32.77929 4.89099 1.26591 -9.32558 10.8089 -0.82848 3.24695 -3.52086 54.29442 131.4739 71.43716 22.4383 -5.74558 -14.20413 26.02558 -17.40382 42.91607 -98.33859 11.77678 -0.56806 45.38122 -2.78755 -10.52469 -25.31305 -6.72838 -3.63869 -2.49416 51.94659 8.34334 2.64258 -31.31044 -7.66343 2.53683 1.95312
-0.11404 -0.02572 0.03855 18.43436 -24.53946 -3.83045 32.64448 4.95865 1.3865 -9.18958 10.93748 -0.8285 3.2891 -3.61757 54.3803 131.46713 71.14734 22.39247 -5.72375 -14.44462 26.03487 -17.37194 42.3518 -98.52145 11.88401 -0.57094 45.49934 -2.60761 -10.84031 -25.39009 -6.71642 -3.6376 -2.50176 52.32006 8.56222 2.53606 -31.49305 -7.71148 2.45698 1.91731
-0.11413 -0.02617 0.0414 18.8142 -24.53004 -3.84866 32.56318 5.01678 1.50084 -9.03131 11.04353 -0.8285 3.40995 -3.71473 54.41925 131.41705 70.82839 22.32134 -5.63959 -14.66767 26.06801 -17.25984 41.7994 -98.67108 11.93541 -0.57592 45.58356 -2.41022 -11.07794 -25.4653 -6.70982 -3.63017 -2.51204 52.62254 8.73371 2.28385 -31.63264 -7.75892 2.39725 1.89468
-0.11428 -0.02663 0.04429 19.21007 -24.52769 -3.86465 32.46129 5.07835 1.61618 -8.88782 11.15543 -0.82851 3.49619 -3.81043 54.47935 131.38824 70.52418 22.26191 -5.5851 -14.89596 26.09106 -17.18962 41.24908 -98.82715 12.01108 -0.57989 45.67936 -2.22225 -11.34302 -25.53946 -6.70111 -3.62738 -2.52155 52.94772 8.92341 2.10016 -31.784 -7.80605 2.32957 1.86646
-0.11447 -0.02713 0.04729 19.61329 -24.53498 -3.88935 32.34443 5.14338 1.74 -8.72009 11.28539 -0.82851 3.57888 -3.91165 54.54019 131.35364 70.20251 22.20203 -5.52367 -15.13187 26.11417 -17.0998 40.66456 -99.01728 12.09125 -0.58402 45.79167 -2.02826 -11.64601 -25.62204 -6.6908 -3.61711 -2.52903 53.31442 9.12796 1.90697 -31.96914 -7.85584 2.25644 1.83637
-0.11455 -0.02754 0.05002 19.99147 -24.51711 -3.89607 32.27123 5.19908 1.84402 -8.59999 11.3728 -0.82852 3.68686 -4.0016 54.58814 131.32048 69.91491 22.13696 -5.46237 -15.34855 26.14158 -17.0303 40.15656 -99.13041 12.14876 -0.5883 45.86128 -1.84267 -11.85029 -25.68658 -6.68517 -3.62082 -2.54138 53.57719 9.28997 1.69876 -32.07341 -7.89984 2.19962 1.8134
-0.11441 -0.0277 0.05209 20.31175 -24.43608 -3.85053 32.30463 5.23086 1.89959 -8.6086 11.34536 -0.82852 3.84877 -4.05779 54.61445 131.30163 69.72424 22.06365 -5.41694 -15.52407 26.17524 -17.03891 39.83957 -99.02787 12.15841 -0.59318 45.82266 -1.68339 -11.79669 -25.70021 -6.69136 -3.66607 -2.56697 53.57209 9.34642 1.48589 -31.96419 -7.92828 2.1828 1.80682
-0.11417 -0.02776 0.05388 20.60765 -24.33019 -3.78726 32.38006 5.25367 1.93453 -8.66793 11.2766 -0.82852 4.03249 -4.10299 54.62897 131.28567 69.57104 21.98611 -5.37409 -15.67984 26.21195 -17.06992 39.60286 -98.85105 12.14699 -0.59803 45.74194 -1.5334 -11.6469 -25.69594 -6.70206 -3.72534 -2.59729 53.46446 9.3615 1.26267 -31.77519 -7.95083 2.18177 1.80699
-0.11397 -0.02786 0.05579 20.9134 -24.23479 -3.73359 32.43683 5.28098 1.97579 -8.71011 11.22844 -0.82852 4.20406 -4.15491 54.6473 131.26838 69.40523 21.91026 -5.32985 -15.84051 26.24665 -17.08862 39.34053 -98.7161 12.14461 -0.60242 45.67954 -1.37975 -11.54296 -25.70081 -6.71063 -3.77734 -2.6252 53.40235 9.3952 1.04342 -31.62288 -7.97585 2.17364 1.80415
-0.11377 -0.02796 0.05775 21.22313 -24.14201 -3.67334 32.49403 5.30632 2.02975 -8.72682 11.1711 -0.82853 4.38846 -4.19983 54.67055 131.24953 69.22018 21.83377 -5.28365 -16.01851 26.28473 -17.11334 39.03147 -98.54673 12.14271 -0.60882 45.61939 -1.22279 -11.4261 -25.70143 -6.71978 -3.83302 -2.6544 53.34195 9.42808 0.82223 -31.46673 -8.00172 2.16589 1.80156
